<?xml version="1.0" standalone="no"?><svg xmlns="http://www.w3.org/2000/svg" viewBox="0 0 1440 320"><path fill="#FFC639" fill-opacity="1" d="M0,192L40,181.3C80,171,160,149,240,154.7C320,160,400,192,480,213.3C560,235,640,245,720,218.7C800,192,880,128,960,90.7C1040,53,1120,43,1200,42.7C1280,43,1360,53,1400,58.7L1440,64L1440,320L1400,320C1360,320,1280,320,1200,320C1120,320,1040,320,960,320C880,320,800,320,720,320C640,320,560,320,480,320C400,320,320,320,240,320C160,320,80,320,40,320L0,320Z"></path></svg>